<svg xmlns="http://www.w3.org/2000/svg" width="1000" height="1000"><path fill="#231F20" d="m642.508 358.918 3.532.054q3.673.062 7.346.14c3.735.075 7.469.124 11.204.171q3.585.065 7.168.135l3.359.038c7.18.18 13.917.498 19.196 5.919 3.4 7.304 4.476 15.252 5.758 23.152 1.797 12.749 1.797 12.749 9.491 22.473 4.1 2.385 6.957 3.187 11.625 3.313l2.731.113c7.42-1.025 12.814-5.53 18.207-10.426 6.724-6.024 12.167-10.873 21.547-11.426 7.794 1.426 13.056 7.763 18.328 13.176l2.328 2.344c3.53 3.577 6.969 7.196 10.25 11.004 4.122 4.78 8.635 9.134 13.168 13.521 5.174 5.085 8.841 9.345 9.342 16.809-.308 9.017-6.713 16.84-11.754 23.87-5.126 7.366-8.343 14.62-7.334 23.702 2.294 6.974 6.385 11.125 12.922 14.516 6.237 2.598 13.186 2.984 19.83 3.857 6.524.939 11.602 2.163 17.248 5.627 5.084 7.38 4.16 16.808 4.168 25.398l.01 3.605q.007 3.765.007 7.53c.002 3.822.02 7.644.04 11.467q.005 3.667.005 7.336l.022 3.438c-.049 17.192-.049 17.192-5.623 22.956-6.226 4.853-14.081 5.808-21.629 7.207-8.537 1.59-16.169 3.232-22.5 9.563-3.521 5.869-4.495 10.957-3.023 17.676 2.295 6.898 6.634 12.317 11.106 17.94 4.93 6.251 9.268 12.681 9.417 20.884-2.872 9.291-10.04 16.36-16.625 23.25l-2.115 2.232a596 596 0 0 1-14.375 14.605c-2.557 2.523-4.91 5.094-7.135 7.913-3.81 4.57-8.361 6.653-14.187 7.5-8.011-1.124-14.793-5.717-21.5-10-12.583-8.05-12.583-8.05-27.063-9.5-4.634 1.896-6.481 4.767-9 9-1.261 3.58-1.261 3.58-2.125 7.438l-.508 2.095C704.25 735.34 703.56 740.098 703 745c-.859 7.085-2.147 12.068-7.25 17.313-6.083 3.732-10.967 4.829-18.035 5.269l-3.813.245L671 768l.007 2.406c.18 67.485.18 67.485-.325 100.957q-.056 3.701-.104 7.403c-.16 12.171-.525 24.286-1.508 36.422l-.237 2.956c-1.307 14.732-5.571 27.683-16.58 38.043-16.063 12.919-36.515 14.127-56.256 14.067q-2.514.003-5.03.01c-4.57.008-9.14.004-13.711-.003-4.944-.004-9.887.003-14.83.008-9.67.01-19.34.007-29.01.002q-11.792-.007-23.585-.003h-3.397l-6.832.003q-31.997.006-63.995-.012-27.429-.012-54.858.002a80460 80460 0 0 1-73.962.006q-11.773-.003-23.545.006-14.355.008-28.711-.007-7.318-.009-14.636 0-6.71.008-13.42-.009-2.416-.002-4.832.004c-20.922.059-40.181-2.329-56.393-16.698-17.85-20.33-15.405-46.35-15.453-71.926l-.009-3.107q-.022-8.1-.028-16.202c-.006-5.563-.03-11.127-.058-16.69a3255 3255 0 0 1-.026-12.907q-.004-3.08-.024-6.159c-.017-2.857-.015-5.713-.008-8.57l-.028-2.551c.033-4.66.396-7.651 3.384-11.451 9.887-8.898 26.564-6.141 39.134-6.12q2.899 0 5.798-.003 7.929-.002 15.858.007 8.565.005 17.128.002 14.826 0 29.652.008 21.435.011 42.871.012 34.78.004 69.561.019 33.78.014 67.56.02h2.106l20.928.004q87.702.016 175.404.051v-30h-9c-6.359-1.777-10.68-3.882-14.06-9.88-3.214-6.763-3.707-12.91-4.073-20.304-.497-7.357-2.022-14.585-7.68-19.754-5.256-3.4-9.786-4.645-16.04-3.594-8.265 2.048-14.817 6.04-21.522 11.157q-2.322 1.741-4.648 3.477l-2.03 1.541c-3.538 2.465-6.367 3.692-10.697 3.857l-2.422.156c-8.05-1.868-14.309-9.859-19.89-15.531l-2.315-2.316a251 251 0 0 1-12.062-13.04c-2.088-2.366-4.338-4.533-6.624-6.707-5.122-5.083-9.668-10.176-11.937-17.125 0-12.098 8.313-21.231 15.3-30.43 4.19-6.183 4.71-12.198 3.7-19.507-2.409-6.63-6.155-11.085-12.531-14.113-5.538-1.99-11.225-2.602-17.035-3.34-16.516-2.172-16.516-2.172-21.434-8.547-2.08-5.019-2.432-9.648-2.625-15l-.11-2.77c-.314-9.177-.399-18.36-.44-27.54q-.013-2.55-.034-5.1a979 979 0 0 1-.021-7.27l-.022-2.182c.032-7.339 1.124-14.135 6.326-19.61 6.176-4.899 14.466-5.893 21.988-7.466C496.874 514.999 505.09 512.58 511 504c2.073-4.147 1.52-9.05.352-13.43-3.624-9.693-9.868-18.04-15.872-26.379-3.807-5.636-4.527-10.428-3.48-17.191 1.51-3.15 3.623-5.464 6-8l1.805-2.117c5.659-6.54 11.827-12.583 17.991-18.643 4.062-4.012 7.934-8.109 11.638-12.455 4.356-4.965 8.41-8.674 15.135-9.673 8.158-.375 15.193 5.037 21.681 9.325 12.84 8.665 12.84 8.665 27.75 10.125 5.37-2.796 7.931-5.75 10.063-11.375 2.295-7.373 3.323-15.008 4.367-22.645 1.168-7.954 3.038-14.429 9.77-19.553 7.174-3.94 16.404-3.234 24.308-3.071M638 391l-.304 2.152a1572 1572 0 0 1-1.446 9.786l-.477 3.384c-1.901 12.47-6.25 22.287-15.945 30.65C607.354 445.916 593.221 449.42 578 448c-9.855-1.767-17.17-7.095-25-13l-2.375-1.777L549 432a1045 1045 0 0 0-6.687 5.563l-1.897 1.556c-4.072 3.433-8.21 6.932-10.416 11.881-.352 7.279 3.101 12.213 6.938 18.188q1.643 2.611 3.277 5.23l1.472 2.305c4.323 7.497 4.466 15.217 2.558 23.59-1.021 3.317-2.16 6.56-3.37 9.812l-1.148 3.3c-4.435 12.373-9.4 24.085-21.348 30.497-5.17 2.343-9.774 3.37-15.442 3.703l-3.597.227c-2.778.123-5.56.148-8.34.148v35l9.313.25c11.287.481 21.441 2.413 29.687 10.75 5.136 6.293 7.483 13.748 9.82 21.403 1.4 4.538 3.077 8.67 5.308 12.866 3.096 6.148 3.02 14.043 1 20.528-2.45 5.174-5.7 9.207-9.542 13.41-3.386 3.828-4.867 7.082-4.711 12.168.826 5.488 4.013 9.074 8.125 12.625l2.168 1.078c2.662 1.34 2.812 3.182 3.832 5.922a182 182 0 0 0 4 5q3.254-2.527 6.5-5.062l1.941-1.516c4.087-3.21 8.032-6.511 11.813-10.082 6.18-4.743 14.36-4.305 21.746-3.34 15.257 3.294 31.997 10.322 41.25 23.313 4.94 7.95 6.191 15.645 7.017 24.835.352 3.683.642 5.715 2.733 8.852 3.106.418 3.106.418 6.758.293l2.01-.013c2.119-.017 4.238-.054 6.357-.092q2.154-.024 4.309-.042 5.283-.051 10.566-.146l.394-2.578q.799-5.211 1.606-10.422c.115-.754.23-1.509.35-2.286 1.756-11.122 4.37-21.463 13.15-29.089 12.177-8.782 28.42-14.205 43.5-12.625 8.673 1.464 16.91 4.85 23.16 11.191 1.648 2.043 1.648 2.043 3.84 1.809l1 3c5.809-4.819 11.13-10.013 16.438-15.375l2.505-2.52q3.032-3.049 6.057-6.105l-1.203-1.395c-11.26-13.094-16.893-23.665-16.024-41.244C769.157 613.947 775.99 598.509 787 589c10.256-6.639 21.029-8.67 33-10v-32c-9.554-2.097-9.554-2.097-19.115-4.157-8.365-1.893-14.203-3.481-19.854-10.175C773.007 519.67 761.458 498.783 765 483c3.038-7.592 7.078-14.578 11.836-21.23 2.523-3.836 2.75-7.308 2.164-11.77-1.957-3.016-4.489-5.442-7-8a778 778 0 0 1-4.427-4.84c-2.18-2.396-4.377-4.777-6.573-7.16-4.066 1.358-6.415 3.118-9.437 6.125-6.683 6.173-15.783 13.269-25.13 14.088-5.193-.455-10.018-2.587-14.822-4.508a373 373 0 0 0-5.726-2.219c-20.486-7.9-20.486-7.9-26.385-14.861l-1.844-2.086c-4.66-7.144-5.25-14.401-5.652-22.736-.33-4.385-.597-6.3-3.45-9.823-3.802-2.947-5.668-3.1-10.437-3.078l-3.535.01-3.707.026-3.73.013q-4.573.018-9.145.049M179 831c-6.164 43.16-6.164 43.16 7 100 6.687 6.687 15.898 8.122 25 8.131l2.11.007q3.507.006 7.014.002l5.073.01q6.977.011 13.955.01 7.523.005 15.045.016 16.454.02 32.908.024 10.275.005 20.549.012 28.449.019 56.898.026h3.679l11.085.002h3.707q29.722.009 59.444.046 30.517.035 61.035.037 17.133-.001 34.267.025 14.591.023 29.182.012 7.442-.008 14.885.011 6.82.019 13.64 0 2.46-.004 4.92.01c17.61.099 17.61.099 32.983-7.643C656.33 907.128 640 864.652 640 831zm33.204-802.131 2.103-.007q3.477-.006 6.954-.002l5.045-.01q6.925-.01 13.85-.01c4.981-.002 9.962-.01 14.943-.016q16.337-.02 32.673-.024l20.412-.012q28.27-.019 56.543-.026h7.317l7.349-.002h3.682q29.514-.009 59.028-.046 30.321-.035 60.642-.037 17.016.001 34.032-.025 14.494-.023 28.987-.012 7.388.008 14.776-.011 6.78-.019 13.556 0 2.438.004 4.876-.01c20.754-.104 40.556 3.418 56.215 18.131 20.053 21.09 15.982 53.577 16.013 80.427l.012 7.234q.02 11.352.027 22.702.007 13.048.05 26.096.034 10.137.034 20.276 0 6.036.025 12.07.023 5.662.01 11.323-.002 2.071.013 4.142c.057 8.375-.027 14.516-5.168 21.378-3.202 3.24-5.465 5.348-9.828 6.852-4.42-.327-6.061-1.289-9.375-4.25-18.579-23.7-7-52.035-7-84H179l.105 123.32a439799 439799 0 0 1 .061 120.301q.02 41.025.063 82.052a106675 106675 0 0 1 .056 98.633q.008 18.864.035 37.728.027 18.975.02 37.95c-.002 6.85.001 13.701.018 20.553q.02 9.414.005 18.828-.003 3.4.012 6.8c.115 29.335.115 29.335-5.255 36.259-2.837 2.772-5.492 4.332-9.183 5.763-5.461-.348-8.769-2.86-12.25-6.812-3.875-7.75-3.979-16.158-3.941-24.672l-.01-3.334c-.008-3.681-.003-7.363.003-11.044l-.011-8.004a8181 8181 0 0 1-.007-17.397c.006-8.623 0-17.247-.009-25.87q-.02-24.451-.014-48.902a77594 77594 0 0 0-.01-51.385q-.013-38.035-.008-76.07V482.8l.003-14.533v-2.916l.002-5.836q.007-45.388-.021-90.775a140200 140200 0 0 1-.027-112.913v-2.707q.002-20.205-.015-40.41-.019-22.994-.002-45.987.012-12.855-.008-25.71-.012-8.604.006-17.209.01-4.89-.004-9.781c-.073-25.11.649-50.104 18.386-69.648 11.91-11.45 29.095-15.49 45.204-15.506m-27.579 40.506C171.947 85.592 179 127.903 179 138h461c4.022-32.389 4.022-32.389-7.29-70.57-10.762-8.994-26.284-7.724-39.543-7.684q-2.505-.003-5.012-.01a4293 4293 0 0 0-13.673.003c-4.927.004-9.855-.003-14.783-.008-9.64-.01-19.28-.007-28.919-.002q-11.752.008-23.506.003h-3.383l-6.806-.003q-31.877-.006-63.755.012-27.341.013-54.682-.002a79901 79901 0 0 0-70.324-.007l-3.368.001q-11.739.003-23.477-.006-14.305-.008-28.61.007-7.296.009-14.592 0-6.682-.008-13.366.009-2.413.003-4.826-.004c-19.458-.199-19.458-.199-35.46 9.636"/><path fill="#231F20" d="M700.445 499.477c17.006 13.33 26.617 31.936 30.14 53.03 2.449 20.644-2.114 41.465-14.202 58.516-12.375 15.46-28.412 27.347-48.414 30.692-21.03 2.02-40.338-1.457-57.344-14.653A240 240 0 0 1 606 623l-2.074-1.793c-14.717-13.56-22.952-33.898-24.13-53.61-.27-20.392 4.88-38.13 17.204-54.597l1.492-2.016c23.738-29.773 72.116-33.628 101.953-11.507m-79.441 32.035c-3.366 4.179-5.775 8.623-8.004 13.488l-1.031 2.066c-4.319 10.217-3.214 24.247.777 34.329 5.08 10.553 12.448 18.527 23.406 23.011 1.842.696 1.842.696 3.848.594l.076-3.557q.144-6.623.296-13.246.065-2.85.125-5.7c.728-34.106.728-34.106 4.503-40.497 4.652-2.837 10.672-2.552 16-2 3.896 1.41 4.748 2.542 6.75 6.188 2.72 7.328 2.439 15.383 2.566 23.093l.063 3.194q.097 5.012.183 10.025l.131 6.828q.16 8.336.307 16.672l3.324-1.396 1.87-.786c10.819-4.901 18.364-14.017 23.244-24.63 4.654-13.132 2.58-26.228-3.25-38.563-6.24-11.61-15.136-18.792-27.731-22.914-17.462-5.053-35.111.664-47.453 13.8M451 206a507 507 0 0 1 3.5 6.563l1.012 1.845.957 1.846.888 1.666c1.8 5.826.273 11.405-1.482 17.04l-.682 2.248c-2.14 6.894-4.67 13.609-7.35 20.309-1.545 3.865-3.063 7.741-4.585 11.616l-1.013 2.572c-4.544 11.564-8.948 23.183-13.37 34.795l-5.437 14.262-1.372 3.595a12898 12898 0 0 1-15.422 40.148 6603 6603 0 0 0-14.015 36.655l-1.328 3.507Q388.144 413 385 421.34l-2.255 5.964-1.02 2.72c-3.054 8.058-5.155 13.56-12.976 17.81-4.493 1.903-8.038 2.736-12.75 1.165-4.099-2.74-7.18-5.38-9-10 .835-10.895 6.672-22.188 10.563-32.312l2.284-5.995q2.98-7.814 5.975-15.62 2.244-5.86 4.484-11.72 4.974-13.01 9.964-26.013c5.067-13.213 10.12-26.432 15.168-39.652l1.32-3.46q11.655-30.528 23.244-61.082 1.072-2.82 2.15-5.641c1.478-3.874 2.945-7.748 4.335-11.654l1.279-3.53 1.024-2.922c2.218-4.398 5.944-6.26 10.21-8.399l2.477-1.46C447.479 206 447.479 206 451 206m-133.133 44.688c4.366 2.248 7.033 4.776 9.133 9.312 1.161 6.528.06 10.548-3.548 15.996-2.248 3.102-4.737 5.869-7.39 8.629l-1.836 1.945c-4.848 5.079-9.824 10.025-14.812 14.965l-2.036 2.02q-5.129 5.092-10.294 10.149l-3.854 3.808c-.598.58-1.196 1.16-1.813 1.756-3.064 3.046-5.176 5.474-6.417 9.732l1.282 1.275q6.647 6.616 13.287 13.24 2.473 2.465 4.95 4.928 3.573 3.556 7.141 7.12c.73.724 1.46 1.448 2.21 2.194 4.018 4.018 7.867 8.124 11.568 12.436 1.592 1.842 3.23 3.637 4.875 5.432 3.391 3.998 4.516 7.526 5 12.75-.36 4.16-1.1 8.032-3.313 11.625-3.049 2.075-5.736 2.324-9.375 2.375l-2.773.086c-6.495-1.05-11.092-6.415-15.536-10.914l-1.874-1.876a1533 1533 0 0 1-3.9-3.923 1794 1794 0 0 0-5.911-5.932c-11.34-11.372-11.34-11.372-16.27-17.243-1.54-1.78-3.18-3.425-4.861-5.073-19.992-19.726-19.992-19.726-20.812-27.437.342-11.855 7.49-19.118 15.312-27.063a292 292 0 0 0 3.75-4.312c2.68-3.095 5.512-5.974 8.433-8.84 1.64-1.668 3.144-3.379 4.649-5.168 5.2-5.979 10.839-11.537 16.44-17.137 1.927-1.93 3.846-3.867 5.765-5.805l3.693-3.699 1.727-1.749c5.204-5.173 9.849-8.387 17.41-5.603M498 253c2.564.087 5.125.194 7.688.313l2.185.068c6.975.35 10.624 2.833 15.44 7.869 2.8 2.875 5.615 5.606 8.687 8.188 3.862 3.314 7.15 7 10.508 10.816 2.778 3.061 5.675 5.969 8.617 8.871 4.508 4.464 8.774 9.036 12.875 13.875q1.525 1.75 3.055 3.496l3.32 3.817 1.627 1.853c4.354 5.036 5.164 8.068 5.248 14.647l.078 3.644c-.67 7.239-4.939 11.763-9.578 16.98l-1.66 1.909c-2.763 3.148-5.59 6.187-8.574 9.127a120 120 0 0 0-6.891 7.402c-4.689 5.432-9.84 10.387-14.953 15.414-4.24 4.197-8.277 8.478-12.167 13.001-1.776 2.018-3.657 3.83-5.692 5.585l-1.918 1.68c-4.276 3.261-7.475 4.016-12.895 3.445-4.182-2.602-6.35-5.257-7.484-10.043l-.266-2.144-.297-2.106c.126-7.252 1.988-12.704 6.969-18.059l1.57-1.757c7.92-8.734 16.381-16.975 24.758-25.266l5.184-5.156A7082 7082 0 0 1 546 328c-4.756-5.737-9.882-10.967-15.195-16.187l-5.356-5.305q-4.187-4.143-8.387-8.275c-2.718-2.675-5.426-5.36-8.132-8.046l-2.532-2.475c-6.166-6.138-11.1-11.605-11.398-20.712 1.24-10.478 1.24-10.478 3-14M348.686 874.733l3.437-.026 3.742.002 3.963-.02c3.58-.018 7.161-.022 10.742-.024q3.357-.001 6.715-.01 11.72-.028 23.44-.026c7.278.002 14.555-.02 21.832-.051q9.381-.038 18.762-.036c3.733 0 7.465-.005 11.198-.026 4.163-.023 8.325-.014 12.489-.002l3.736-.034c7.812.058 11.506.832 17.106 6.336 1.633 3.096 1.586 5.64 1.59 9.122l.058 3.652c-.6 4.13-1.413 5.61-4.496 8.41-6.696 3.171-12.503 3.424-19.841 3.372l-3.526.011c-3.832.008-7.664-.005-11.496-.02q-4.013 0-8.025.002-8.405 0-16.808-.029-9.677-.03-19.355-.018-9.351.007-18.703-.011-3.96-.006-7.919-.004c-3.7 0-7.398-.012-11.098-.028l-3.27.007c-10.606-.073-20.073-.515-27.959-8.282-2.979-4.468-2.733-8.764-2-14 1.63-3.423 3.889-5.456 7.32-7.136 2.939-.947 5.282-1.12 8.366-1.131m112.002-791.42 3.918.104C483.58 84.1 483.58 84.1 491 91c3.266 3.6 4.281 6.303 4.5 11.063-.16 3.231-.493 4.922-1.937 7.874-7.17 5.772-16.079 5.552-24.891 5.645l-3.836.069q-4.005.067-8.008.112c-3.384.038-6.766.098-10.149.166-3.273.062-6.546.107-9.82.153l-3.622.07c-21.845.198-21.845.198-30.432-7.336-2.128-2.14-4.017-4.385-5.805-6.816l-2-1c1.616-3.727 3.92-6.556 6.563-9.625l2.44-2.914c6.802-5.586 16.183-4.892 24.622-5.148 1.802-.06 1.802-.06 3.64-.119 9.484-.25 18.94-.16 28.423.118"/></svg>